<?xml version="1.0" standalone="no"?>
<!DOCTYPE svg PUBLIC "-//W3C//DTD SVG 20010904//EN"
 "http://www.w3.org/TR/2001/REC-SVG-20010904/DTD/svg10.dtd">
<svg version="1.0" xmlns="http://www.w3.org/2000/svg"
 width="899.000000pt" height="899.000000pt" viewBox="0 0 899.000000 899.000000"
 preserveAspectRatio="xMidYMid meet">
<metadata>
Created by potrace 1.14, written by Peter Selinger 2001-2017
</metadata>
<g transform="translate(0.000000,899.000000) scale(0.100000,-0.100000)"
fill="#000000" stroke="none">
<path d="M2010 8922 c0 -5 60 -100 185 -292 34 -52 113 -174 175 -270 126
-195 119 -184 466 -720 138 -212 279 -430 314 -485 36 -55 68 -101 72 -103 5
-2 8 -8 8 -13 0 -5 46 -80 103 -166 130 -199 559 -859 572 -881 6 -9 25 -38
43 -65 17 -26 32 -49 32 -51 0 -3 29 -47 63 -99 35 -52 67 -100 70 -108 4 -8
67 -106 141 -219 74 -113 185 -284 247 -380 62 -96 154 -238 204 -315 50 -77
117 -180 149 -228 32 -49 55 -95 52 -103 -4 -11 -291 -442 -332 -499 -8 -11
-49 -72 -92 -136 -42 -64 -140 -209 -217 -324 -77 -114 -144 -215 -150 -223
-5 -9 -13 -21 -18 -26 -35 -49 -87 -128 -87 -135 0 -4 -8 -16 -18 -27 -9 -10
-84 -120 -167 -244 -82 -124 -152 -227 -155 -230 -3 -3 -11 -17 -19 -32 -8
-16 -18 -28 -23 -28 -4 0 -8 -7 -8 -15 0 -8 -3 -15 -8 -15 -4 0 -12 -9 -17
-20 -6 -11 -104 -160 -220 -332 -243 -360 -473 -703 -915 -1363 -173 -258
-319 -474 -323 -480 -4 -5 -50 -73 -102 -150 l-94 -140 1097 -3 c603 -1 1102
0 1108 2 8 3 188 276 304 461 8 14 100 156 203 317 104 161 253 394 333 518
79 124 149 232 154 240 6 8 29 44 52 80 22 36 65 101 93 145 29 44 87 134 129
200 42 66 81 127 86 135 6 8 26 40 45 70 19 30 39 62 45 70 22 33 252 389 295
457 6 9 39 62 75 117 36 56 124 192 195 304 72 111 151 235 178 275 26 39 50
79 55 87 7 14 23 40 157 245 29 44 143 221 253 394 l201 313 -35 55 c-59 92
-198 312 -214 338 -29 48 -234 371 -275 435 -24 36 -129 202 -235 370 -106
168 -207 328 -225 355 -35 55 -59 91 -190 300 -49 77 -128 202 -177 278 -48
76 -88 140 -88 143 0 3 -5 10 -11 17 -5 7 -43 64 -83 127 -231 366 -393 621
-421 665 -220 345 -335 528 -335 535 0 4 -3 10 -8 12 -4 2 -27 35 -50 73 -23
39 -77 124 -120 191 -42 67 -81 128 -87 137 -5 9 -59 94 -120 188 -60 94 -117
183 -125 198 -9 14 -23 38 -33 52 l-17 26 -1070 0 c-589 0 -1070 -2 -1070 -5z"/>
</g>
</svg>
