<svg xmlns="http://www.w3.org/2000/svg" width="1200" height="630" viewBox="0 0 1200 630"><defs><linearGradient id="bg" x1="0" x2="1" y1="0" y2="1"><stop offset="0" stop-color="#071a2d"/><stop offset="1" stop-color="#0b2941"/></linearGradient><radialGradient id="glow" cx="0" cy="1" r="1"><stop offset="0" stop-color="#04ffaa" stop-opacity=".16"/><stop offset=".7" stop-color="#04ffaa" stop-opacity="0"/></radialGradient><pattern id="grid" width="160" height="160" patternUnits="userSpaceOnUse"><path fill="none" stroke="#d9e0ff" stroke-opacity=".035" d="M160 0H0V160"/></pattern></defs><rect width="1200" height="630" fill="url(#bg)"/><rect width="1200" height="630" fill="url(#glow)"/><rect width="1200" height="630" fill="url(#grid)"/><rect width="1200" height="7" fill="#04ffaa"/><g font-family="ui-monospace, SFMono-Regular, Menlo, monospace"><text x="88" y="126" fill="#04ffaa" font-size="25" letter-spacing="7">$ ARTICLE 01</text><text x="88" y="526" fill="#8492b4" font-size="19" letter-spacing="2">yusuke-hayashi.com/trust-control-plane</text></g><g font-family="system-ui, -apple-system, BlinkMacSystemFont, sans-serif"><text x="84" y="220" fill="#d6ddfa" font-size="66" font-weight="700">A Personal Trust</text><text x="84" y="296" fill="#d6ddfa" font-size="66" font-weight="700">Control Plane</text><text x="88" y="360" fill="#aeb9d8" font-size="27">Verifiable · monitorable · recoverable</text><text x="88" y="405" fill="#8492b4" font-size="22">Public identity without a single platform or long-lived key</text></g><g transform="translate(820 145)"><path fill="none" stroke="#04ffaa" stroke-opacity=".5" stroke-width="2" d="M145 54V110M70 178H0M290 178H220M145 246V304"/><rect width="180" height="54" x="55" fill="#d6ddfa" fill-opacity=".035" stroke="#d6ddfa" stroke-opacity=".18" rx="9"/><rect width="200" height="136" x="45" y="110" fill="#04ffaa" fill-opacity=".08" stroke="#04ffaa" stroke-opacity=".45" rx="12"/><rect width="70" height="54" y="151" fill="#d6ddfa" fill-opacity=".035" stroke="#d6ddfa" stroke-opacity=".18" rx="9"/><rect width="70" height="54" x="220" y="151" fill="#d6ddfa" fill-opacity=".035" stroke="#d6ddfa" stroke-opacity=".18" rx="9"/><rect width="180" height="54" x="55" y="304" fill="#d6ddfa" fill-opacity=".035" stroke="#d6ddfa" stroke-opacity=".18" rx="9"/><g font-family="system-ui, -apple-system, BlinkMacSystemFont, sans-serif" text-anchor="middle"><text x="145" y="33" fill="#d6ddfa" font-size="16" font-weight="600">Sigstore + SLSA</text><text x="145" y="160" fill="#d6ddfa" font-size="18" font-weight="650">Canonical</text><text x="145" y="184" fill="#d6ddfa" font-size="18" font-weight="650">identity state</text><text x="145" y="216" fill="#04ffaa" font-family="ui-monospace, SFMono-Regular, Menlo, monospace" font-size="12">identity.json</text><text x="35" y="183" fill="#aeb9d8" font-size="12">PGP</text><text x="255" y="176" fill="#aeb9d8" font-size="11">DNS</text><text x="255" y="191" fill="#aeb9d8" font-size="11">ENS</text><text x="145" y="337" fill="#aeb9d8" font-size="14">Independent evidence</text></g></g></svg>